<?xml version="1.0" standalone="no"?>
<!DOCTYPE svg PUBLIC "-//W3C//DTD SVG 20010904//EN"
 "http://www.w3.org/TR/2001/REC-SVG-20010904/DTD/svg10.dtd">
<svg version="1.0" xmlns="http://www.w3.org/2000/svg"
 width="1000.000000pt" height="1000.000000pt" viewBox="0 0 1000.000000 1000.000000"
 preserveAspectRatio="xMidYMid meet">
<metadata>
Created by potrace 1.14, written by Peter Selinger 2001-2017
</metadata>
<g transform="translate(0.000000,1000.000000) scale(0.100000,-0.100000)"
fill="#000000" stroke="none">
<path d="M0 5000 l0 -5000 5000 0 5000 0 0 5000 0 5000 -5000 0 -5000 0 0
-5000z m6515 4108 c187 -194 400 -414 473 -489 l133 -137 -405 -338 c-223
-187 -411 -340 -418 -342 -10 -2 -33 194 -97 803 l-83 806 23 25 c12 13 25 24
29 24 3 0 158 -159 345 -352z m-1569 -1605 c40 -389 75 -723 77 -742 3 -33 -3
-39 -501 -460 l-503 -426 550 -3 c541 -2 551 -3 551 -22 0 -26 108 -1076 115
-1112 l4 -28 -615 -2 -615 -3 198 -170 c508 -436 1143 -986 1147 -994 7 -10
198 -1841 193 -1854 -3 -9 -323 290 -1677 1567 -1724 1626 -2130 2010 -2130
2017 0 7 542 521 1925 1824 1124 1060 1196 1127 1202 1122 3 -3 38 -325 79
-714z m1844 -2213 l0 -580 -90 0 c-85 0 -90 1 -94 23 -6 25 -116 1092 -116
1120 0 15 14 17 150 17 l150 0 0 -580z m238 -3179 c28 -25 52 -49 52 -53 0
-15 -164 -218 -171 -210 -3 4 -14 86 -23 182 -9 96 -19 186 -22 199 -6 26 -8
28 164 -118z"/>
</g>
</svg>
